<svg xmlns="http://www.w3.org/2000/svg"  viewBox="0 0 24 24" width="48px" height="48px"><path d="M 12 0 C 5.383 0 0 5.383 0 12 C 0 18.617 5.383 24 12 24 C 18.617 24 24 18.617 24 12 C 24 5.383 18.617 0 12 0 z M 12 1.5 C 17.79 1.5 22.5 6.21 22.5 12 C 22.5 17.79 17.79 22.5 12 22.5 C 6.21 22.5 1.5 17.79 1.5 12 C 1.5 6.21 6.21 1.5 12 1.5 z M 12 4 C 9.656 4 7.75 5.907 7.75 8.25 C 7.75 8.664 8.086 9 8.5 9 C 8.914 9 9.25 8.664 9.25 8.25 C 9.25 6.733 10.483 5.5 12 5.5 C 13.517 5.5 14.75 6.733 14.75 8.25 C 14.75 9.174 13.946953 10.446188 12.751953 10.867188 C 11.853953 11.184188 11.25 12.038234 11.25 12.990234 L 11.25 14 C 11.25 14.414 11.586 14.75 12 14.75 C 12.414 14.75 12.75 14.414 12.75 14 L 12.75 12.990234 C 12.75 12.672234 12.951953 12.388203 13.251953 12.283203 C 14.933953 11.689203 16.25 9.918 16.25 8.25 C 16.25 5.907 14.344 4 12 4 z M 12 17 A 1 1 0 0 0 12 19 A 1 1 0 0 0 12 17 z"/></svg>