<svg xmlns="http://www.w3.org/2000/svg"  viewBox="0 0 50 50" width="150px" height="150px"><path d="M 15 0 C 6.730469 0 0 6.730469 0 15 C 0 23.269531 6.730469 30 15 30 C 16.394531 30 17.738281 29.792969 19.019531 29.4375 L 19.292969 29.707031 L 24.585938 35 L 29 35 L 29 40 L 34 40 L 34 45 L 39 45 L 39 50 L 46.414063 50 L 50 46.414063 L 50 45.792969 L 47.890625 38.472656 L 29.707031 20.292969 L 29.203125 19.785156 C 29.710938 18.28125 30 16.675781 30 15 C 30 6.730469 23.269531 0 15 0 Z M 15 2 C 22.1875 2 28 7.8125 28 15 C 28 22.1875 22.1875 28 15 28 C 7.8125 28 2 22.1875 2 15 C 2 7.8125 7.8125 2 15 2 Z M 12.5 7 C 10.027344 7 8 9.027344 8 11.5 C 7.996094 13.972656 10.027344 16 12.5 16 C 14.972656 16 17 13.972656 17 11.5 C 17 9.027344 14.972656 6.996094 12.5 7 Z M 12.5 9 C 13.894531 8.996094 15 10.105469 15 11.5 C 15 12.894531 13.894531 14 12.5 14 C 11.105469 14 9.996094 12.894531 10 11.5 C 10 10.105469 11.105469 9 12.5 9 Z M 28.363281 21.777344 L 46.109375 39.527344 L 47.394531 43.984375 L 31.707031 28.292969 L 31 27.585938 L 29.585938 29 L 47.085938 46.5 L 45.585938 48 L 41 48 L 41 43 L 36 43 L 36 38 L 31 38 L 31 33 L 25.414063 33 L 21.101563 28.6875 C 24.242188 27.28125 26.808594 24.832031 28.363281 21.777344 Z"/></svg>